<?xml version="1.0" standalone="no"?>
<!DOCTYPE svg PUBLIC "-//W3C//DTD SVG 20010904//EN"
 "http://www.w3.org/TR/2001/REC-SVG-20010904/DTD/svg10.dtd">
<svg version="1.0" xmlns="http://www.w3.org/2000/svg"
 width="224.000000pt" height="224.000000pt" viewBox="0 0 224.000000 224.000000"
 preserveAspectRatio="xMidYMid meet">

<g transform="translate(0.000000,224.000000) scale(0.100000,-0.100000)"
fill="#000000" stroke="none">
<path d="M1918 1513 l-48 -14 0 -304 0 -305 55 0 55 0 0 314 c0 173 -3 317 -7
319 -5 3 -29 -2 -55 -10z"/>
<path d="M90 1206 l0 -316 55 0 c48 0 55 3 55 20 0 19 0 19 43 0 48 -22 121
-25 181 -8 55 16 138 99 154 154 41 140 -30 280 -162 319 -75 22 -107 19 -198
-20 -16 -6 -18 0 -18 68 0 42 -3 78 -7 80 -5 3 -29 8 -55 12 l-48 7 0 -316z
m316 58 c96 -46 99 -200 5 -249 -17 -8 -49 -15 -72 -15 -107 0 -174 117 -119
208 40 66 116 89 186 56z"/>
<path d="M2065 1511 l-30 -6 0 -305 0 -305 53 -3 52 -3 0 315 0 316 -22 -1
c-13 -1 -36 -4 -53 -8z"/>
<path d="M700 1376 l-45 -12 -3 -237 -2 -237 55 0 55 0 0 250 c0 138 -3 250
-7 249 -5 -1 -28 -6 -53 -13z"/>
<path d="M897 1197 c-65 -161 -77 -201 -77 -250 l0 -57 135 0 135 0 0 -30 c0
-30 1 -30 55 -30 54 0 55 0 55 29 0 28 2 30 48 33 l47 3 3 53 3 52 -50 0 -51
0 0 65 0 65 -55 0 -55 0 0 -65 0 -65 -70 0 c-38 0 -70 1 -70 3 0 1 31 89 69
195 l68 192 -56 0 -57 0 -77 -193z"/>
<path d="M1490 1381 c-156 -48 -230 -221 -154 -361 47 -86 122 -130 221 -130
36 0 75 8 101 20 42 19 42 19 42 0 0 -17 7 -20 50 -20 l49 0 3 250 c2 138 1
250 -1 250 -11 0 -87 -25 -96 -31 -6 -4 -35 1 -65 11 -57 20 -108 24 -150 11z
m148 -130 c72 -51 75 -160 7 -220 -31 -27 -44 -31 -90 -31 -46 0 -59 5 -89 30
-78 69 -70 176 17 231 41 26 112 21 155 -10z"/>
</g>
</svg>
