<svg width="32" height="46" viewBox="0 0 32 46" fill="none" xmlns="http://www.w3.org/2000/svg">
<g clip-path="url(#clip0)">
<path d="M27.5332 2.30885L24.1276 5.71441H21.1261L21.8188 2.59746V2.19341L19.3367 5.71441H16.5084V0H15.0654V5.71441H11.9484L9.46641 2.19341V2.59746L10.1591 5.71441H7.15755L3.752 2.30885L2.71301 2.02025L6.23401 7.44605H6.92667H24.3585H25.0512L28.5722 2.02025L27.5332 2.30885Z" fill="#B73951"/>
<path d="M0 11.3131V18.2974L1.21215 18.5283L1.38531 11.3131H23.3771L24.3007 9.87012H0V11.3131Z" fill="#B73951"/>
<path d="M16.7392 45.5996H14.5458L0 37.9804V17.3739L1.21215 18.5283V37.2877L14.8344 45.1378H16.4506L30.0728 37.2877V18.5283L31.285 17.3739V37.9804L16.7392 45.5996Z" fill="#203C53"/>
<path d="M16.6237 37.9804H14.6612L5.13715 33.0164V19.6827L6.34929 20.8372V32.266L15.0075 37.5763H16.3351L24.9356 32.266V20.8372L26.2054 19.6827V33.0164L16.6237 37.9804Z" fill="#203C53"/>
<path d="M20.8951 35.1522L16.162 32.7856H15.123L10.3321 35.2099L9.23541 34.7481L14.8921 31.9198H16.3929L22.0495 34.7481L20.8951 35.1522Z" fill="#203C53"/>
<path d="M16.6238 30.1304H14.6613L10.3322 27.8793L10.2745 19.1634L5.2527 15.1806H5.65675L11.4866 17.374L11.5443 27.1289L15.0076 28.9183H16.3352L19.7407 27.1289L19.7985 17.374L25.6283 15.1806H26.0324L21.0106 19.1634L20.9529 27.8793L16.6238 30.1304Z" fill="#203C53"/>
<path d="M16.2774 29.4954H14.9498V32.7855H16.2774V29.4954Z" fill="#203C53"/>
</g>
<defs>
<clipPath id="clip0">
<rect width="31.285" height="45.5996" fill="white"/>
</clipPath>
</defs>
</svg>
