<?xml version="1.0" encoding="UTF-8" standalone="no" ?>
<!DOCTYPE svg PUBLIC "-//W3C//DTD SVG 1.1//EN" "http://www.w3.org/Graphics/SVG/1.1/DTD/svg11.dtd">
<svg xmlns="http://www.w3.org/2000/svg" xmlns:xlink="http://www.w3.org/1999/xlink" version="1.1" width="1080" height="1080" viewBox="0 0 1080 1080" xml:space="preserve">
<desc>Created with Fabric.js 5.2.4</desc>
<defs>
</defs>
<g transform="matrix(1 0 0 1 540 540)" id="47a0c6fa-a2a5-4d6a-a20e-f0221def597a"  >
<rect style="stroke: none; stroke-width: 1; stroke-dasharray: none; stroke-linecap: butt; stroke-dashoffset: 0; stroke-linejoin: miter; stroke-miterlimit: 4; fill: rgb(255,255,255); fill-rule: nonzero; opacity: 1; visibility: hidden;" vector-effect="non-scaling-stroke"  x="-540" y="-540" rx="0" ry="0" width="1080" height="1080" />
</g>
<g transform="matrix(1 0 0 1 540 540)" id="4ef37737-6ca2-4268-9053-b863f01b3802"  >
</g>
<g transform="matrix(1 0 0 1 540 540)"  >
<g style="" vector-effect="non-scaling-stroke"   >
		<g transform="matrix(1 0 0 1 -48.33 0)"  >
<path style="stroke: none; stroke-width: 1; stroke-dasharray: none; stroke-linecap: butt; stroke-dashoffset: 0; stroke-linejoin: miter; stroke-miterlimit: 4; fill: rgb(224,227,228); fill-rule: nonzero; opacity: 1;" vector-effect="non-scaling-stroke"  transform=" translate(-53.61, -75.38)" d="M 0 0 C 7.48532285 -0.06998645 14.97061112 -0.1230553 22.4561882 -0.15543652 C 25.93331334 -0.17099005 29.41021211 -0.19203537 32.88720703 -0.22631836 C 36.89878317 -0.26561778 40.91012731 -0.27979421 44.921875 -0.29296875 C 46.15049255 -0.30845261 47.37911011 -0.32393646 48.6449585 -0.33988953 C 64.84805732 -0.34300014 76.79283727 4.30169417 88.61328125 15.3984375 C 105.93421518 34.27853897 108.08050333 60.67875635 107.17285156 85.03662109 C 106.00666162 105.02986058 100.27416873 125.20986859 85 139 C 72.86061713 148.04684047 61.74906109 150.43344168 46.8359375 150.546875 C 45.5221109 150.56719788 44.2082843 150.58752075 42.85464478 150.60845947 C 40.09990466 150.65043726 37.34527552 150.68325611 34.59033203 150.70849609 C 31.05371671 150.74106369 27.51760331 150.79077839 23.98128319 150.84641647 C 20.59957307 150.89867685 17.21778175 150.94160221 13.8359375 150.984375 C 11.92680069 151.01081085 11.92680069 151.01081085 9.97909546 151.03778076 C 8.81343048 151.04819397 7.6477655 151.05860718 6.44677734 151.06933594 C 4.90103531 151.08574127 4.90103531 151.08574127 3.32406616 151.10247803 C 1 151 1 151 0 150 C -0.09662973 148.063717 -0.12187144 146.12385738 -0.12025452 144.18516541 C -0.12162918 142.92166763 -0.12300385 141.65816986 -0.12442017 140.35638428 C -0.12088055 138.94323707 -0.11724574 137.5300901 -0.11352539 136.11694336 C -0.11324353 134.63898216 -0.11340124 133.16102081 -0.1139679 131.68305969 C -0.1142559 127.65844172 -0.1083587 123.63385328 -0.10139394 119.6092422 C -0.09516088 115.40783635 -0.09455664 111.2064299 -0.09336853 107.00502014 C -0.09025507 99.04353743 -0.08204149 91.08206838 -0.07201904 83.1205917 C -0.06085836 74.05907411 -0.05534757 64.99755588 -0.05032361 55.93603313 C -0.03985888 37.290681 -0.02225916 18.64534159 0 0 Z M 17 14 C 17 54.26 17 94.52 17 136 C 48.47313053 138.58956248 48.47313053 138.58956248 75 126 C 88.01797684 112.32976545 90.53777253 93.71163751 90.375 75.5625 C 90.38660156 74.27279297 90.39820312 72.98308594 90.41015625 71.65429688 C 90.37364543 59.50227892 89.10659436 47.32377298 83.1875 36.5 C 82.65757446 35.4958606 82.65757446 35.4958606 82.11694336 34.47143555 C 75.27789054 21.8389382 67.814429 18.1443287 54 14 C 41.79 14 29.58 14 17 14 Z" stroke-linecap="round" />
</g>
		<g transform="matrix(1 0 0 1 60.04 11.88)"  >
<path style="stroke: none; stroke-width: 1; stroke-dasharray: none; stroke-linecap: butt; stroke-dashoffset: 0; stroke-linejoin: miter; stroke-miterlimit: 4; fill: rgb(178,181,183); fill-rule: nonzero; opacity: 1;" vector-effect="non-scaling-stroke"  transform=" translate(20.4, -56.44)" d="M 0 0 C 7.97579218 4.32585338 13.02278572 8.66129119 16.625 17.1875 C 17.22168143 19.5873878 17.46668628 21.70725174 17.625 24.1875 C 16.305 24.1875 14.985 24.1875 13.625 24.1875 C 13.41746094 23.47464844 13.20992188 22.76179688 12.99609375 22.02734375 C 10.37385493 13.87536282 7.46133589 8.68032279 -0.28515625 4.6875 C -12.91502975 -0.8214411 -25.31492684 -1.43322014 -38.375 3.1875 C -46.36513967 6.80503855 -51.72573557 11.63405911 -55.51171875 19.5703125 C -58.05227109 27.2724395 -56.64388822 34.99594592 -53.375 42.1875 C -53.045 43.1775 -52.715 44.1675 -52.375 45.1875 C -50.54997001 46.31338087 -50.54997001 46.31338087 -48.375 47.1875 C -47.7051709 47.52257568 -47.0353418 47.85765137 -46.34521484 48.20288086 C -40.91301634 50.77854579 -35.94548045 52.02513026 -30 52.75 C -28.24472795 52.99172528 -26.48952121 53.23392518 -24.734375 53.4765625 C -22.94793395 53.71367195 -21.16147569 53.95065169 -19.375 54.1875 C 8.95969343 58.03398232 8.95969343 58.03398232 16.625 67.1875 C 20.82329378 73.85613128 22.34919948 81.20166513 21.21875 88.984375 C 19.70357009 95.51407891 17.17650549 100.29085666 12.625 105.1875 C 12.12226563 105.73148437 11.61953125 106.27546875 11.1015625 106.8359375 C 2.8083137 114.80554732 -9.49664044 118.11463656 -20.75390625 118.21875 C -34.60193892 117.61071344 -46.51548053 113.51750346 -56.25 103.4375 C -59.74204767 99.22267968 -61.60507839 94.6058233 -62.375 89.1875 C -62.045 88.1975 -61.715 87.2075 -61.375 86.1875 C -60.385 86.1875 -59.395 86.1875 -58.375 86.1875 C -58.21644531 86.82816406 -58.05789062 87.46882813 -57.89453125 88.12890625 C -55.67421054 96.36003994 -52.62470259 102.28573555 -45.39453125 107.05859375 C -33.00738418 113.98293708 -18.94587288 115.12129773 -5.33203125 111.28515625 C 3.75396867 107.91241388 10.21714845 102.86861222 14.625 94.1875 C 16.82245934 87.59512199 16.92000228 78.92436979 13.9375 72.5625 C 9.64776637 65.61017308 3.1842452 63.3899551 -4.375 61.1875 C -9.3099042 60.29368773 -14.26552931 59.72961766 -19.25 59.1875 C -46.15050937 56.24397922 -46.15050937 56.24397922 -56.0625 46.5625 C -61.18096801 39.99104752 -62.30556972 31.26536218 -61.375 23.1875 C -59.66661881 14.63135753 -55.2779906 7.99851208 -48.1875 2.9375 C -43.2218469 -0.15654871 -37.92543926 -2.03817925 -32.375 -3.8125 C -22.22170055 -7.19693315 -9.36943757 -4.50520546 0 0 Z" stroke-linecap="round" />
</g>
		<g transform="matrix(1 0 0 1 73.56 -34.19)"  >
<path style="stroke: none; stroke-width: 1; stroke-dasharray: none; stroke-linecap: butt; stroke-dashoffset: 0; stroke-linejoin: miter; stroke-miterlimit: 4; fill: rgb(193,196,197); fill-rule: nonzero; opacity: 1;" vector-effect="non-scaling-stroke"  transform=" translate(-24.5, -13.19)" d="M 0 0 C 27.37188482 -1.23840314 27.37188482 -1.23840314 37 6 C 37.92039062 6.59167969 37.92039062 6.59167969 38.859375 7.1953125 C 43.74152567 10.65148847 47.10015 16.38075036 48.53125 22.13671875 C 48.8125 24.0625 48.8125 24.0625 49 27 C 47.68 27 46.36 27 45 27 C 44.79246094 26.28714844 44.58492187 25.57429688 44.37109375 24.83984375 C 41.74885493 16.68786282 38.83633589 11.49282279 31.08984375 7.5 C 23.26041775 4.08493438 16.06975713 2.90325966 7.625 2.4375 C 6.88894531 2.39431641 6.15289062 2.35113281 5.39453125 2.30664062 C 3.59651932 2.20156201 1.79828042 2.10037907 0 2 C 0 1.34 0 0.68 0 0 Z" stroke-linecap="round" />
</g>
		<g transform="matrix(1 0 0 1 37.06 56.72)"  >
<path style="stroke: none; stroke-width: 1; stroke-dasharray: none; stroke-linecap: butt; stroke-dashoffset: 0; stroke-linejoin: miter; stroke-miterlimit: 4; fill: rgb(177,180,182); fill-rule: nonzero; opacity: 1;" vector-effect="non-scaling-stroke"  transform=" translate(-18, -15.1)" d="M 0 0 C 0.99 0 1.98 0 3 0 C 3.15855469 0.64066406 3.31710938 1.28132812 3.48046875 1.94140625 C 5.62815844 9.9032835 8.52394293 16.00538589 15.56640625 20.7421875 C 20.32498745 23.20167891 25.40862381 24.89161756 30.453125 26.66796875 C 34 28 34 28 37 30 C 27.08859935 30.8779784 19.26597417 28.81004459 11.16015625 22.9453125 C 4.81547428 17.56025203 0.60544405 12.35072058 -0.8125 4.0625 C -0.874375 3.051875 -0.93625 2.04125 -1 1 C -0.67 0.67 -0.34 0.34 0 0 Z" stroke-linecap="round" />
</g>
		<g transform="matrix(1 0 0 1 36.56 -4.78)"  >
<path style="stroke: none; stroke-width: 1; stroke-dasharray: none; stroke-linecap: butt; stroke-dashoffset: 0; stroke-linejoin: miter; stroke-miterlimit: 4; fill: rgb(178,181,183); fill-rule: nonzero; opacity: 1;" vector-effect="non-scaling-stroke"  transform=" translate(-14.5, -16.6)" d="M 0 0 C 0.33 0 0.66 0 1 0 C 1.16435547 1.53720703 1.16435547 1.53720703 1.33203125 3.10546875 C 1.49156745 4.46621867 1.6517584 5.82689194 1.8125 7.1875 C 1.88275391 7.86103516 1.95300781 8.53457031 2.02539062 9.22851562 C 2.55046175 13.53409888 3.60582301 16.4120142 6 20 C 6 20.66 6 21.32 6 22 C 14.1164753 26.09447191 22.33377304 29.24323068 31 32 C 31 32.33 31 32.66 31 33 C 22.03518315 33.71527794 14.79847613 32.68133632 7 28 C 2.88615856 24.43897844 -0.61993914 20.36690335 -2 15 C -2 14.01 -2 13.02 -2 12 C -1.34 12 -0.68 12 0 12 C 0 8.04 0 4.08 0 0 Z" stroke-linecap="round" />
</g>
		<g transform="matrix(1 0 0 1 67.06 13.62)"  >
<path style="stroke: none; stroke-width: 1; stroke-dasharray: none; stroke-linecap: butt; stroke-dashoffset: 0; stroke-linejoin: miter; stroke-miterlimit: 4; fill: rgb(180,184,186); fill-rule: nonzero; opacity: 1;" vector-effect="non-scaling-stroke"  transform=" translate(-21, -5)" d="M 0 0 C 8.38750582 0.36358396 16.6376003 1.10822055 24.9375 2.375 C 25.71714111 2.48884033 26.49678223 2.60268066 27.30004883 2.7199707 C 32.51775917 3.553892 37.10513097 5.00641284 42 7 C 41.34 7.33 40.68 7.66 40 8 C 40 8.66 40 9.32 40 10 C 39.45939941 9.88027832 38.91879883 9.76055664 38.36181641 9.63720703 C 30.42404668 7.95865716 22.41539798 6.91327256 14.375 5.875 C 12.97521998 5.69171478 11.57548005 5.50812317 10.17578125 5.32421875 C 6.78423456 4.87980918 3.39231749 4.43848017 0 4 C 0 3.67 0 3.34 0 3 C 1.65 2.67 3.3 2.34 5 2 C 3.35 1.67 1.7 1.34 0 1 C 0 0.67 0 0.34 0 0 Z" stroke-linecap="round" />
</g>
		<g transform="matrix(1 0 0 1 92.62 29.62)"  >
<path style="stroke: none; stroke-width: 1; stroke-dasharray: none; stroke-linecap: butt; stroke-dashoffset: 0; stroke-linejoin: miter; stroke-miterlimit: 4; fill: rgb(187,190,192); fill-rule: nonzero; opacity: 1;" vector-effect="non-scaling-stroke"  transform=" translate(-6.56, -13)" d="M 0 0 C 4.92289989 0.43437352 7.48750825 2.643619 11 6 C 14.74644171 11.53046157 14.12813453 18.59327331 14 25 C 13.34 25.33 12.68 25.66 12 26 C 12 22.7 12 19.4 12 16 C 11.34 16 10.68 16 10 16 C 9.76925781 15.46890625 9.53851563 14.9378125 9.30078125 14.390625 C 7.16775626 9.77047601 5.29630944 6.93958014 1 4 C 0.34 3.34 -0.32 2.68 -1 2 C -0.67 1.34 -0.34 0.68 0 0 Z" stroke-linecap="round" />
</g>
		<g transform="matrix(1 0 0 1 52.06 -43.37)"  >
<path style="stroke: none; stroke-width: 1; stroke-dasharray: none; stroke-linecap: butt; stroke-dashoffset: 0; stroke-linejoin: miter; stroke-miterlimit: 4; fill: rgb(172,176,178); fill-rule: nonzero; opacity: 1;" vector-effect="non-scaling-stroke"  transform=" translate(18, -5.01)" d="M 0 0 C 0 0.33 0 0.66 0 1 C -6.93 1 -13.86 1 -21 1 C -21 1.66 -21 2.32 -21 3 C -19.35 3 -17.7 3 -16 3 C -16 3.33 -16 3.66 -16 4 C -16.7734375 4.17015625 -17.546875 4.3403125 -18.34375 4.515625 C -24.76546336 6.00978603 -30.24021157 7.7878103 -36 11 C -36 9.35 -36 7.7 -36 6 C -24.39047456 -1.31904865 -13.34149344 -2.01381033 0 0 Z" stroke-linecap="round" />
</g>
		<g transform="matrix(1 0 0 1 98.57 40.62)"  >
<path style="stroke: none; stroke-width: 1; stroke-dasharray: none; stroke-linecap: butt; stroke-dashoffset: 0; stroke-linejoin: miter; stroke-miterlimit: 4; fill: rgb(146,150,152); fill-rule: nonzero; opacity: 1;" vector-effect="non-scaling-stroke"  transform=" translate(0.49, -12)" d="M 0 0 C 3.30973509 4.96460264 3.53151272 10.29473656 2.390625 16.1015625 C 1.66176014 18.76260684 0.87984425 21.38532162 0 24 C -0.66 23.34 -1.32 22.68 -2 22 C -2.66 22.33 -3.32 22.66 -4 23 C -3.84660156 22.32582031 -3.69320312 21.65164062 -3.53515625 20.95703125 C -2.91516143 17.53122048 -2.6647426 14.16106553 -2.4375 10.6875 C -2.35371094 9.43324219 -2.26992187 8.17898437 -2.18359375 6.88671875 C -2.12300781 5.93410156 -2.06242188 4.98148437 -2 4 C -1.67 4 -1.34 4 -1 4 C -0.67 6.97 -0.34 9.94 0 13 C 0 8.71 0 4.42 0 0 Z" stroke-linecap="round" />
</g>
		<g transform="matrix(1 0 0 1 43.06 8.68)"  >
<path style="stroke: none; stroke-width: 1; stroke-dasharray: none; stroke-linecap: butt; stroke-dashoffset: 0; stroke-linejoin: miter; stroke-miterlimit: 4; fill: rgb(161,164,166); fill-rule: nonzero; opacity: 1;" vector-effect="non-scaling-stroke"  transform=" translate(-7, -3.06)" d="M 0 0 C 5.92863717 1.16651426 11.38798394 2.75519358 17 5 C 17 5.33 17 5.66 17 6 C 9.56621057 6.33452052 3.80122845 6.13902852 -3 3 C -2.01 2.67 -1.02 2.34 0 2 C 0 1.34 0 0.68 0 0 Z" stroke-linecap="round" />
</g>
		<g transform="matrix(1 0 0 1 57.56 -46.53)"  >
<path style="stroke: none; stroke-width: 1; stroke-dasharray: none; stroke-linecap: butt; stroke-dashoffset: 0; stroke-linejoin: miter; stroke-miterlimit: 4; fill: rgb(117,120,123); fill-rule: nonzero; opacity: 1;" vector-effect="non-scaling-stroke"  transform=" translate(12.5, -1.84)" d="M 0 0 C 0 0.33 0 0.66 0 1 C -6.93 1 -13.86 1 -21 1 C -21 1.66 -21 2.32 -21 3 C -19.35 3 -17.7 3 -16 3 C -16 3.33 -16 3.66 -16 4 C -20.455 4.495 -20.455 4.495 -25 5 C -25 4.01 -25 3.02 -25 2 C -17.65185953 -2.89876032 -8.36783551 -1.26306951 0 0 Z" stroke-linecap="round" />
</g>
		<g transform="matrix(1 0 0 1 94.66 -26.88)"  >
<path style="stroke: none; stroke-width: 1; stroke-dasharray: none; stroke-linecap: butt; stroke-dashoffset: 0; stroke-linejoin: miter; stroke-miterlimit: 4; fill: rgb(180,184,185); fill-rule: nonzero; opacity: 1;" vector-effect="non-scaling-stroke"  transform=" translate(-2.6, -6.5)" d="M 0 0 C 0.66 0 1.32 0 2 0 C 2.67305018 1.60149886 3.33822227 3.20631029 4 4.8125 C 4.37125 5.70582031 4.7425 6.59914063 5.125 7.51953125 C 6 10 6 10 6 13 C 4.68 13 3.36 13 2 13 C 1.46605821 11.5882217 0.94834896 10.17029756 0.4375 8.75 C 0.14746094 7.96109375 -0.14257812 7.1721875 -0.44140625 6.359375 C -1.04522837 3.80896548 -0.8473932 2.44677771 0 0 Z" stroke-linecap="round" />
</g>
		<g transform="matrix(1 0 0 1 53.56 11.13)"  >
<path style="stroke: none; stroke-width: 1; stroke-dasharray: none; stroke-linecap: butt; stroke-dashoffset: 0; stroke-linejoin: miter; stroke-miterlimit: 4; fill: rgb(151,154,156); fill-rule: nonzero; opacity: 1;" vector-effect="non-scaling-stroke"  transform=" translate(-7.5, -2.51)" d="M 0 0 C 4.95 0.33 9.9 0.66 15 1 C 14.67 2.32 14.34 3.64 14 5 C 9.1666528 5.08333357 4.76307437 4.95261487 0 4 C 0 3.67 0 3.34 0 3 C 1.65 2.67 3.3 2.34 5 2 C 3.35 1.67 1.7 1.34 0 1 C 0 0.67 0 0.34 0 0 Z" stroke-linecap="round" />
</g>
		<g transform="matrix(1 0 0 1 23.06 -11.38)"  >
<path style="stroke: none; stroke-width: 1; stroke-dasharray: none; stroke-linecap: butt; stroke-dashoffset: 0; stroke-linejoin: miter; stroke-miterlimit: 4; fill: rgb(170,173,175); fill-rule: nonzero; opacity: 1;" vector-effect="non-scaling-stroke"  transform=" translate(-1, -10)" d="M 0 0 C 0.33 0 0.66 0 1 0 C 1.13277344 1.03640625 1.26554688 2.0728125 1.40234375 3.140625 C 1.58060639 4.51043265 1.75899862 5.88022344 1.9375 7.25 C 2.02451172 7.93191406 2.11152344 8.61382812 2.20117188 9.31640625 C 2.6315938 12.60036611 3.08794131 15.81190294 4 19 C 3.01 18.67 2.02 18.34 1 18 C 0.67 18.66 0.34 19.32 0 20 C -1.25664978 17.09399739 -2 15.20395416 -2 12 C -1.34 12 -0.68 12 0 12 C 0 8.04 0 4.08 0 0 Z" stroke-linecap="round" />
</g>
		<g transform="matrix(1 0 0 1 20.94 -17.38)"  >
<path style="stroke: none; stroke-width: 1; stroke-dasharray: none; stroke-linecap: butt; stroke-dashoffset: 0; stroke-linejoin: miter; stroke-miterlimit: 4; fill: rgb(190,193,195); fill-rule: nonzero; opacity: 1;" vector-effect="non-scaling-stroke"  transform=" translate(1.11, -8)" d="M 0 0 C 1.16306443 3.54950034 0.92365049 6.55823948 0.5625 10.25 C 0.40974609 11.86648437 0.40974609 11.86648437 0.25390625 13.515625 C 0.17011719 14.33546875 0.08632812 15.1553125 0 16 C -0.66 16 -1.32 16 -2 16 C -3.26237731 13.47524538 -3.09856404 11.68799534 -3.0625 8.875 C -3.05347656 7.96492188 -3.04445312 7.05484375 -3.03515625 6.1171875 C -3.02355469 5.41851562 -3.01195312 4.71984375 -3 4 C -2.34 4 -1.68 4 -1 4 C -0.67 2.68 -0.34 1.36 0 0 Z" stroke-linecap="round" />
</g>
		<g transform="matrix(1 0 0 1 78.56 67.14)"  >
<path style="stroke: none; stroke-width: 1; stroke-dasharray: none; stroke-linecap: butt; stroke-dashoffset: 0; stroke-linejoin: miter; stroke-miterlimit: 4; fill: rgb(195,198,199); fill-rule: nonzero; opacity: 1;" vector-effect="non-scaling-stroke"  transform=" translate(5.5, -3.52)" d="M 0 0 C 0.33 0.66 0.66 1.32 1 2 C 0.01 2 -0.98 2 -2 2 C -2 2.99 -2 3.98 -2 5 C -5.50776784 6.60355101 -8.14354879 7.22036864 -12 7 C -8.22313713 3.09290048 -5.43141712 0.88077034 0 0 Z" stroke-linecap="round" />
</g>
		<g transform="matrix(1 0 0 1 49.06 69.67)"  >
<path style="stroke: none; stroke-width: 1; stroke-dasharray: none; stroke-linecap: butt; stroke-dashoffset: 0; stroke-linejoin: miter; stroke-miterlimit: 4; fill: rgb(208,211,212); fill-rule: nonzero; opacity: 1;" vector-effect="non-scaling-stroke"  transform=" translate(-7, -2.05)" d="M 0 0 C 4.96916636 0.51405169 9.29026351 1.23384882 14 3 C 14 3.33 14 3.66 14 4 C 12.22925083 4.02705729 10.45838289 4.04642195 8.6875 4.0625 C 7.70136719 4.07410156 6.71523437 4.08570313 5.69921875 4.09765625 C 3 4 3 4 0 3 C 0 2.01 0 1.02 0 0 Z" stroke-linecap="round" />
</g>
		<g transform="matrix(1 0 0 1 23.06 -26.38)"  >
<path style="stroke: none; stroke-width: 1; stroke-dasharray: none; stroke-linecap: butt; stroke-dashoffset: 0; stroke-linejoin: miter; stroke-miterlimit: 4; fill: rgb(165,169,171); fill-rule: nonzero; opacity: 1;" vector-effect="non-scaling-stroke"  transform=" translate(0, -5)" d="M 0 0 C 0.99 0 1.98 0 3 0 C 2.5020163 3.73487777 2.12508244 5.81237635 0 9 C -0.33 8.34 -0.66 7.68 -1 7 C -1.66 7.99 -2.32 8.98 -3 10 C -2.25 3.375 -2.25 3.375 0 0 Z" stroke-linecap="round" />
</g>
		<g transform="matrix(1 0 0 1 76.56 14.51)"  >
<path style="stroke: none; stroke-width: 1; stroke-dasharray: none; stroke-linecap: butt; stroke-dashoffset: 0; stroke-linejoin: miter; stroke-miterlimit: 4; fill: rgb(156,159,161); fill-rule: nonzero; opacity: 1;" vector-effect="non-scaling-stroke"  transform=" translate(-0.5, -1.89)" d="M 0 0 C 2.31 0.33 4.62 0.66 7 1 C 3.1357927 3.5761382 1.37182666 4.18466897 -3.25 3.5625 C -4.1575 3.376875 -5.065 3.19125 -6 3 C -6 2.67 -6 2.34 -6 2 C -4.02 2 -2.04 2 0 2 C 0 1.34 0 0.68 0 0 Z" stroke-linecap="round" />
</g>
		<g transform="matrix(1 0 0 1 96.04 -23.88)"  >
<path style="stroke: none; stroke-width: 1; stroke-dasharray: none; stroke-linecap: butt; stroke-dashoffset: 0; stroke-linejoin: miter; stroke-miterlimit: 4; fill: rgb(171,174,176); fill-rule: nonzero; opacity: 1;" vector-effect="non-scaling-stroke"  transform=" translate(-0.98, -3.5)" d="M 0 0 C 0.66 0 1.32 0 2 0 C 2.33 2.31 2.66 4.62 3 7 C 1.68 7 0.36 7 -1 7 C -1.04254356 5.00045254 -1.04080783 2.99958364 -1 1 C -0.67 0.67 -0.34 0.34 0 0 Z" stroke-linecap="round" />
</g>
		<g transform="matrix(1 0 0 1 47.06 10.18)"  >
<path style="stroke: none; stroke-width: 1; stroke-dasharray: none; stroke-linecap: butt; stroke-dashoffset: 0; stroke-linejoin: miter; stroke-miterlimit: 4; fill: rgb(233,236,237); fill-rule: nonzero; opacity: 1;" vector-effect="non-scaling-stroke"  transform=" translate(-6, -1.56)" d="M 0 0 C 1.62580966 0.11398665 3.25067157 0.24155659 4.875 0.375 C 5.77992188 0.44460937 6.68484375 0.51421875 7.6171875 0.5859375 C 10 1 10 1 12 3 C 3.42857143 3.28571429 3.42857143 3.28571429 0 1 C 0 0.67 0 0.34 0 0 Z" stroke-linecap="round" />
</g>
		<g transform="matrix(1 0 0 1 70.06 -45.36)"  >
<path style="stroke: none; stroke-width: 1; stroke-dasharray: none; stroke-linecap: butt; stroke-dashoffset: 0; stroke-linejoin: miter; stroke-miterlimit: 4; fill: rgb(165,168,170); fill-rule: nonzero; opacity: 1;" vector-effect="non-scaling-stroke"  transform=" translate(5, -1.01)" d="M 0 0 C -0.33 0.99 -0.66 1.98 -1 3 C -3.97 2.67 -6.94 2.34 -10 2 C -10 1.67 -10 1.34 -10 1 C -3.71428571 -1.42857143 -3.71428571 -1.42857143 0 0 Z" stroke-linecap="round" />
</g>
		<g transform="matrix(1 0 0 1 71.06 69.18)"  >
<path style="stroke: none; stroke-width: 1; stroke-dasharray: none; stroke-linecap: butt; stroke-dashoffset: 0; stroke-linejoin: miter; stroke-miterlimit: 4; fill: rgb(136,140,142); fill-rule: nonzero; opacity: 1;" vector-effect="non-scaling-stroke"  transform=" translate(5, -1.57)" d="M 0 0 C -0.99 0.66 -1.98 1.32 -3 2 C -2.67 2.66 -2.34 3.32 -2 4 C -3.32 4 -4.64 4 -6 4 C -6 3.34 -6 2.68 -6 2 C -7.32 1.67 -8.64 1.34 -10 1 C -8.71073008 0.63720544 -7.41846728 0.28503302 -6.125 -0.0625 C -5.40570313 -0.25972656 -4.68640625 -0.45695313 -3.9453125 -0.66015625 C -2 -1 -2 -1 0 0 Z" stroke-linecap="round" />
</g>
		<g transform="matrix(1 0 0 1 23.66 -5.88)"  >
<path style="stroke: none; stroke-width: 1; stroke-dasharray: none; stroke-linecap: butt; stroke-dashoffset: 0; stroke-linejoin: miter; stroke-miterlimit: 4; fill: rgb(152,156,158); fill-rule: nonzero; opacity: 1;" vector-effect="non-scaling-stroke"  transform=" translate(-0.61, -4.5)" d="M 0 0 C 1.41377341 2.63904371 2.37240135 5.07120629 3 8 C 2.01 7.67 1.02 7.34 0 7 C -0.33 7.66 -0.66 8.32 -1 9 C -2.0326802 6.21176345 -2.04509293 5.1322726 -1.0625 2.25 C -0.711875 1.5075 -0.36125 0.765 0 0 Z" stroke-linecap="round" />
</g>
		<g transform="matrix(1 0 0 1 20.06 45.62)"  >
<path style="stroke: none; stroke-width: 1; stroke-dasharray: none; stroke-linecap: butt; stroke-dashoffset: 0; stroke-linejoin: miter; stroke-miterlimit: 4; fill: rgb(156,160,162); fill-rule: nonzero; opacity: 1;" vector-effect="non-scaling-stroke"  transform=" translate(-1, -4)" d="M 0 0 C 0.99 0 1.98 0 3 0 C 3 1.32 3 2.64 3 4 C 2.34 4 1.68 4 1 4 C 0.67 5.32 0.34 6.64 0 8 C -0.38063221 5.6739143 -0.71269945 3.33944736 -1 1 C -0.67 0.67 -0.34 0.34 0 0 Z" stroke-linecap="round" />
</g>
		<g transform="matrix(1 0 0 1 49.56 -45.38)"  >
<path style="stroke: none; stroke-width: 1; stroke-dasharray: none; stroke-linecap: butt; stroke-dashoffset: 0; stroke-linejoin: miter; stroke-miterlimit: 4; fill: rgb(144,148,150); fill-rule: nonzero; opacity: 1;" vector-effect="non-scaling-stroke"  transform=" translate(-4.5, -2)" d="M 0 0 C 1.32 0 2.64 0 4 0 C 4 0.66 4 1.32 4 2 C 5.65 2 7.3 2 9 2 C 9 2.33 9 2.66 9 3 C 4.545 3.495 4.545 3.495 0 4 C 0 2.66666667 0 1.33333333 0 0 Z" stroke-linecap="round" />
</g>
</g>
</g>
</svg>