<?xml version="1.0" encoding="UTF-8"?>
<svg xmlns="http://www.w3.org/2000/svg" xmlns:xlink="http://www.w3.org/1999/xlink" width="1920px" height="1920px" viewBox="0 0 1920 1920" version="1.1">
<g id="surface1">
<path style=" stroke:none;fill-rule:nonzero;fill:rgb(16.078431%,16.078431%,16.078431%);fill-opacity:1;" d="M 778.773438 825.992188 C 792.082031 825.867188 805.386719 825.773438 818.695312 825.714844 C 824.878906 825.6875 831.058594 825.648438 837.238281 825.589844 C 844.371094 825.519531 851.503906 825.492188 858.632812 825.46875 C 860.820312 825.441406 863.003906 825.414062 865.253906 825.386719 C 894.058594 825.382812 915.292969 833.636719 936.308594 853.367188 C 967.101562 886.929688 970.917969 933.863281 969.304688 977.167969 C 967.230469 1012.710938 957.039062 1048.585938 929.882812 1073.101562 C 908.304688 1089.183594 888.550781 1093.429688 862.039062 1093.628906 C 859.703125 1093.667969 857.367188 1093.703125 854.960938 1093.738281 C 850.0625 1093.8125 845.164062 1093.871094 840.265625 1093.917969 C 833.980469 1093.976562 827.695312 1094.0625 821.40625 1094.164062 C 815.394531 1094.253906 809.382812 1094.332031 803.371094 1094.40625 C 799.976562 1094.453125 799.976562 1094.453125 796.515625 1094.503906 C 794.441406 1094.519531 792.371094 1094.539062 790.234375 1094.558594 C 787.484375 1094.589844 787.484375 1094.589844 784.683594 1094.617188 C 780.550781 1094.4375 780.550781 1094.4375 778.773438 1092.65625 C 778.601562 1089.214844 778.558594 1085.765625 778.558594 1082.320312 C 778.558594 1080.074219 778.554688 1077.828125 778.550781 1075.511719 C 778.558594 1073 778.566406 1070.488281 778.570312 1067.976562 C 778.570312 1065.347656 778.570312 1062.722656 778.570312 1060.09375 C 778.570312 1052.9375 778.582031 1045.785156 778.59375 1038.628906 C 778.605469 1031.160156 778.605469 1023.691406 778.605469 1016.222656 C 778.613281 1002.070312 778.628906 987.914062 778.644531 973.761719 C 778.664062 957.652344 778.675781 941.542969 778.683594 925.433594 C 778.703125 892.285156 778.734375 859.136719 778.773438 825.992188 Z M 808.996094 850.878906 C 808.996094 922.453125 808.996094 994.027344 808.996094 1067.769531 C 864.949219 1072.371094 864.949219 1072.371094 912.105469 1049.992188 C 935.25 1025.6875 939.730469 992.589844 939.441406 960.324219 C 939.460938 958.03125 939.480469 955.738281 939.503906 953.375 C 939.4375 931.773438 937.183594 910.121094 926.664062 890.878906 C 925.71875 889.09375 925.71875 889.09375 924.757812 887.273438 C 912.601562 864.816406 899.332031 858.246094 874.773438 850.878906 C 853.066406 850.878906 831.359375 850.878906 808.996094 850.878906 Z M 808.996094 850.878906 "/>
<path style=" stroke:none;fill-rule:nonzero;fill:rgb(16.078431%,16.078431%,16.078431%);fill-opacity:1;" d="M 1102.988281 880.765625 C 1117.164062 888.453125 1126.136719 896.164062 1132.542969 911.320312 C 1133.601562 915.585938 1134.039062 919.355469 1134.320312 923.765625 C 1131.972656 923.765625 1129.625 923.765625 1127.207031 923.765625 C 1126.839844 922.496094 1126.472656 921.230469 1126.089844 919.925781 C 1121.429688 905.433594 1116.25 896.195312 1102.480469 889.097656 C 1080.027344 879.304688 1057.980469 878.214844 1034.765625 886.429688 C 1020.558594 892.863281 1011.03125 901.445312 1004.300781 915.554688 C 999.78125 929.25 1002.285156 942.980469 1008.097656 955.765625 C 1008.683594 957.523438 1009.269531 959.285156 1009.875 961.097656 C 1013.121094 963.097656 1013.121094 963.097656 1016.988281 964.652344 C 1018.175781 965.25 1019.367188 965.84375 1020.59375 966.457031 C 1030.253906 971.039062 1039.082031 973.253906 1049.652344 974.542969 C 1052.773438 974.972656 1055.894531 975.402344 1059.015625 975.832031 C 1062.191406 976.253906 1065.367188 976.675781 1068.542969 977.097656 C 1118.914062 983.9375 1118.914062 983.9375 1132.542969 1000.207031 C 1140.003906 1012.0625 1142.71875 1025.121094 1140.707031 1038.957031 C 1138.015625 1050.566406 1133.523438 1059.058594 1125.429688 1067.765625 C 1124.539062 1068.730469 1123.644531 1069.699219 1122.722656 1070.695312 C 1107.980469 1084.863281 1086.105469 1090.746094 1066.089844 1090.929688 C 1041.472656 1089.851562 1020.292969 1082.574219 1002.988281 1064.652344 C 996.777344 1057.160156 993.464844 1048.953125 992.097656 1039.320312 C 992.683594 1037.558594 993.269531 1035.800781 993.875 1033.988281 C 995.636719 1033.988281 997.394531 1033.988281 999.207031 1033.988281 C 999.492188 1035.125 999.773438 1036.265625 1000.0625 1037.4375 C 1004.011719 1052.070312 1009.429688 1062.605469 1022.285156 1071.089844 C 1044.308594 1083.402344 1069.304688 1085.425781 1093.507812 1078.605469 C 1109.660156 1072.609375 1121.152344 1063.640625 1128.988281 1048.207031 C 1132.894531 1036.488281 1133.066406 1021.074219 1127.765625 1009.765625 C 1120.136719 997.40625 1108.648438 993.457031 1095.207031 989.542969 C 1086.4375 987.953125 1077.625 986.949219 1068.765625 985.988281 C 1020.941406 980.753906 1020.941406 980.753906 1003.320312 963.542969 C 994.21875 951.859375 992.222656 936.347656 993.875 921.988281 C 996.914062 906.777344 1004.714844 894.984375 1017.320312 885.988281 C 1026.148438 880.484375 1035.5625 877.140625 1045.429688 873.988281 C 1063.480469 867.96875 1086.328125 872.753906 1102.988281 880.765625 Z M 1102.988281 880.765625 "/>
<path style=" stroke:none;fill-rule:nonzero;fill:rgb(16.078431%,16.078431%,16.078431%);fill-opacity:1;" d="M 1047.21875 875.769531 C 1095.878906 873.566406 1095.878906 873.566406 1112.996094 886.4375 C 1114.632812 887.488281 1114.632812 887.488281 1116.300781 888.5625 C 1124.980469 894.703125 1130.953125 904.890625 1133.496094 915.125 C 1133.996094 918.546875 1133.996094 918.546875 1134.328125 923.769531 C 1131.980469 923.769531 1129.636719 923.769531 1127.21875 923.769531 C 1126.847656 922.5 1126.480469 921.234375 1126.101562 919.929688 C 1121.4375 905.4375 1116.261719 896.199219 1102.488281 889.101562 C 1088.570312 883.03125 1075.785156 880.929688 1060.773438 880.101562 C 1059.464844 880.027344 1058.15625 879.949219 1056.808594 879.871094 C 1053.613281 879.683594 1050.414062 879.503906 1047.21875 879.324219 C 1047.21875 878.152344 1047.21875 876.976562 1047.21875 875.769531 Z M 1047.21875 875.769531 "/>
<path style=" stroke:none;fill-rule:nonzero;fill:rgb(16.078431%,16.078431%,16.078431%);fill-opacity:1;" d="M 993.882812 1033.992188 C 995.644531 1033.992188 997.40625 1033.992188 999.21875 1033.992188 C 999.5 1035.128906 999.78125 1036.269531 1000.070312 1037.441406 C 1003.890625 1051.597656 1009.039062 1062.445312 1021.558594 1070.867188 C 1030.019531 1075.238281 1039.054688 1078.242188 1048.023438 1081.402344 C 1054.328125 1083.769531 1054.328125 1083.769531 1059.664062 1087.324219 C 1042.042969 1088.886719 1028.136719 1085.207031 1013.726562 1074.78125 C 1002.445312 1065.210938 994.960938 1055.949219 992.441406 1041.214844 C 992.328125 1039.417969 992.21875 1037.621094 992.105469 1035.769531 C 992.691406 1035.183594 993.28125 1034.59375 993.882812 1033.992188 Z M 993.882812 1033.992188 "/>
<path style=" stroke:none;fill-rule:nonzero;fill:rgb(16.078431%,16.078431%,16.078431%);fill-opacity:1;" d="M 999.21875 921.992188 C 999.804688 921.992188 1000.390625 921.992188 1000.996094 921.992188 C 1001.289062 924.722656 1001.289062 924.722656 1001.585938 927.511719 C 1001.871094 929.929688 1002.152344 932.351562 1002.441406 934.769531 C 1002.566406 935.964844 1002.691406 937.164062 1002.820312 938.398438 C 1003.75 946.050781 1005.628906 951.167969 1009.882812 957.546875 C 1009.882812 958.71875 1009.882812 959.894531 1009.882812 961.101562 C 1024.3125 968.382812 1038.921875 973.980469 1054.328125 978.878906 C 1054.328125 979.464844 1054.328125 980.054688 1054.328125 980.65625 C 1038.390625 981.929688 1025.527344 980.089844 1011.664062 971.769531 C 1004.347656 965.4375 998.117188 958.199219 995.664062 948.65625 C 995.664062 946.898438 995.664062 945.136719 995.664062 943.324219 C 996.835938 943.324219 998.007812 943.324219 999.21875 943.324219 C 999.21875 936.285156 999.21875 929.246094 999.21875 921.992188 Z M 999.21875 921.992188 "/>
<path style=" stroke:none;fill-rule:nonzero;fill:rgb(16.078431%,16.078431%,16.078431%);fill-opacity:1;" d="M 1041.882812 975.324219 C 1056.796875 975.972656 1071.460938 977.292969 1086.21875 979.546875 C 1087.605469 979.75 1088.988281 979.953125 1090.417969 980.160156 C 1099.695312 981.640625 1107.847656 984.226562 1116.550781 987.769531 C 1115.378906 988.355469 1114.203125 988.941406 1112.996094 989.546875 C 1112.996094 990.71875 1112.996094 991.894531 1112.996094 993.101562 C 1112.035156 992.890625 1111.074219 992.675781 1110.082031 992.457031 C 1095.972656 989.472656 1081.734375 987.613281 1067.441406 985.769531 C 1064.953125 985.441406 1062.464844 985.117188 1059.976562 984.789062 C 1053.945312 984 1047.914062 983.214844 1041.882812 982.4375 C 1041.882812 981.847656 1041.882812 981.261719 1041.882812 980.65625 C 1044.816406 980.070312 1047.75 979.484375 1050.773438 978.878906 C 1047.839844 978.292969 1044.90625 977.707031 1041.882812 977.101562 C 1041.882812 976.515625 1041.882812 975.929688 1041.882812 975.324219 Z M 1041.882812 975.324219 "/>
<path style=" stroke:none;fill-rule:nonzero;fill:rgb(16.078431%,16.078431%,16.078431%);fill-opacity:1;" d="M 1112.976562 989.546875 C 1121.730469 990.320312 1126.289062 994.246094 1132.535156 1000.214844 C 1139.195312 1010.046875 1138.09375 1022.601562 1137.867188 1033.992188 C 1136.691406 1034.578125 1135.519531 1035.164062 1134.3125 1035.769531 C 1134.3125 1029.902344 1134.3125 1024.035156 1134.3125 1017.992188 C 1133.136719 1017.992188 1131.964844 1017.992188 1130.753906 1017.992188 C 1130.34375 1017.046875 1129.933594 1016.101562 1129.511719 1015.128906 C 1125.71875 1006.917969 1122.394531 1001.882812 1114.753906 996.65625 C 1113.582031 995.484375 1112.410156 994.3125 1111.199219 993.101562 C 1111.785156 991.929688 1112.375 990.753906 1112.976562 989.546875 Z M 1112.976562 989.546875 "/>
<path style=" stroke:none;fill-rule:nonzero;fill:rgb(16.078431%,16.078431%,16.078431%);fill-opacity:1;" d="M 1084.550781 873.992188 C 1084.550781 874.578125 1084.550781 875.164062 1084.550781 875.769531 C 1072.230469 875.769531 1059.910156 875.769531 1047.21875 875.769531 C 1047.21875 876.941406 1047.21875 878.117188 1047.21875 879.324219 C 1050.152344 879.324219 1053.085938 879.324219 1056.105469 879.324219 C 1056.105469 879.910156 1056.105469 880.496094 1056.105469 881.101562 C 1054.730469 881.40625 1053.355469 881.707031 1051.941406 882.019531 C 1040.523438 884.675781 1030.789062 887.835938 1020.550781 893.546875 C 1020.550781 890.613281 1020.550781 887.679688 1020.550781 884.65625 C 1041.191406 871.644531 1060.832031 870.410156 1084.550781 873.992188 Z M 1084.550781 873.992188 "/>
<path style=" stroke:none;fill-rule:nonzero;fill:rgb(16.078431%,16.078431%,16.078431%);fill-opacity:1;" d="M 1136.089844 1010.878906 C 1141.972656 1019.707031 1142.367188 1029.183594 1140.339844 1039.503906 C 1139.042969 1044.234375 1137.652344 1048.898438 1136.089844 1053.546875 C 1134.914062 1052.375 1133.742188 1051.199219 1132.535156 1049.992188 C 1131.359375 1050.578125 1130.1875 1051.164062 1128.976562 1051.769531 C 1129.25 1050.570312 1129.523438 1049.371094 1129.804688 1048.136719 C 1130.90625 1042.046875 1131.351562 1036.054688 1131.753906 1029.878906 C 1131.90625 1027.648438 1132.054688 1025.421875 1132.207031 1023.125 C 1132.316406 1021.429688 1132.421875 1019.734375 1132.535156 1017.992188 C 1133.121094 1017.992188 1133.707031 1017.992188 1134.3125 1017.992188 C 1134.898438 1023.269531 1135.484375 1028.550781 1136.089844 1033.992188 C 1136.089844 1026.363281 1136.089844 1018.738281 1136.089844 1010.878906 Z M 1136.089844 1010.878906 "/>
<path style=" stroke:none;fill-rule:nonzero;fill:rgb(16.078431%,16.078431%,16.078431%);fill-opacity:1;" d="M 1024.105469 969.992188 C 1034.644531 972.066406 1044.351562 974.890625 1054.328125 978.878906 C 1054.328125 979.464844 1054.328125 980.054688 1054.328125 980.65625 C 1041.113281 981.253906 1030.863281 980.90625 1018.773438 975.324219 C 1020.535156 974.738281 1022.292969 974.152344 1024.105469 973.546875 C 1024.105469 972.375 1024.105469 971.199219 1024.105469 969.992188 Z M 1024.105469 969.992188 "/>
<path style=" stroke:none;fill-rule:nonzero;fill:rgb(16.078431%,16.078431%,16.078431%);fill-opacity:1;" d="M 1084.550781 873.992188 C 1084.550781 874.578125 1084.550781 875.164062 1084.550781 875.769531 C 1072.230469 875.769531 1059.910156 875.769531 1047.21875 875.769531 C 1047.21875 876.941406 1047.21875 878.117188 1047.21875 879.324219 C 1050.152344 879.324219 1053.085938 879.324219 1056.105469 879.324219 C 1056.105469 879.910156 1056.105469 880.496094 1056.105469 881.101562 C 1048.1875 881.980469 1048.1875 881.980469 1040.105469 882.878906 C 1040.105469 881.121094 1040.105469 879.359375 1040.105469 877.546875 C 1053.171875 868.835938 1069.675781 871.746094 1084.550781 873.992188 Z M 1084.550781 873.992188 "/>
<path style=" stroke:none;fill-rule:nonzero;fill:rgb(16.078431%,16.078431%,16.078431%);fill-opacity:1;" d="M 1123.664062 900.65625 C 1124.835938 900.65625 1126.007812 900.65625 1127.21875 900.65625 C 1128.414062 903.503906 1129.597656 906.359375 1130.773438 909.214844 C 1131.433594 910.800781 1132.09375 912.390625 1132.773438 914.027344 C 1134.328125 918.4375 1134.328125 918.4375 1134.328125 923.769531 C 1131.980469 923.769531 1129.636719 923.769531 1127.21875 923.769531 C 1126.269531 921.257812 1125.347656 918.738281 1124.441406 916.214844 C 1123.925781 914.8125 1123.410156 913.410156 1122.878906 911.964844 C 1121.804688 907.429688 1122.15625 905.007812 1123.664062 900.65625 Z M 1123.664062 900.65625 "/>
<path style=" stroke:none;fill-rule:nonzero;fill:rgb(16.078431%,16.078431%,16.078431%);fill-opacity:1;" d="M 1041.882812 975.324219 C 1050.683594 975.910156 1059.484375 976.496094 1068.550781 977.101562 C 1067.964844 979.449219 1067.378906 981.796875 1066.773438 984.214844 C 1058.179688 984.363281 1050.351562 984.128906 1041.882812 982.4375 C 1041.882812 981.847656 1041.882812 981.261719 1041.882812 980.65625 C 1044.816406 980.070312 1047.75 979.484375 1050.773438 978.878906 C 1047.839844 978.292969 1044.90625 977.707031 1041.882812 977.101562 C 1041.882812 976.515625 1041.882812 975.929688 1041.882812 975.324219 Z M 1041.882812 975.324219 "/>
<path style=" stroke:none;fill-rule:nonzero;fill:rgb(16.078431%,16.078431%,16.078431%);fill-opacity:1;" d="M 999.21875 921.992188 C 999.804688 921.992188 1000.390625 921.992188 1000.996094 921.992188 C 1001.230469 923.832031 1001.46875 925.675781 1001.710938 927.574219 C 1002.027344 930.007812 1002.34375 932.445312 1002.664062 934.878906 C 1002.816406 936.09375 1002.972656 937.304688 1003.132812 938.554688 C 1003.894531 944.390625 1004.707031 950.101562 1006.328125 955.769531 C 1004.570312 955.183594 1002.808594 954.59375 1000.996094 953.992188 C 1000.410156 955.164062 999.820312 956.335938 999.21875 957.546875 C 996.984375 952.378906 995.664062 949.019531 995.664062 943.324219 C 996.835938 943.324219 998.007812 943.324219 999.21875 943.324219 C 999.21875 936.285156 999.21875 929.246094 999.21875 921.992188 Z M 999.21875 921.992188 "/>
<path style=" stroke:none;fill-rule:nonzero;fill:rgb(16.078431%,16.078431%,16.078431%);fill-opacity:1;" d="M 999.199219 914.878906 C 1001.269531 921.191406 1000.84375 926.539062 1000.199219 933.101562 C 999.929688 935.976562 999.929688 935.976562 999.652344 938.90625 C 999.503906 940.367188 999.351562 941.824219 999.199219 943.324219 C 998.027344 943.324219 996.851562 943.324219 995.644531 943.324219 C 993.398438 938.835938 993.691406 935.660156 993.753906 930.65625 C 993.773438 929.039062 993.789062 927.421875 993.804688 925.753906 C 993.824219 924.511719 993.84375 923.269531 993.867188 921.992188 C 995.039062 921.992188 996.214844 921.992188 997.421875 921.992188 C 998.007812 919.644531 998.59375 917.296875 999.199219 914.878906 Z M 999.199219 914.878906 "/>
<path style=" stroke:none;fill-rule:nonzero;fill:rgb(16.078431%,16.078431%,16.078431%);fill-opacity:1;" d="M 1109.441406 1073.101562 C 1110.027344 1074.277344 1110.613281 1075.449219 1111.21875 1076.65625 C 1109.457031 1076.65625 1107.699219 1076.65625 1105.882812 1076.65625 C 1105.882812 1078.417969 1105.882812 1080.179688 1105.882812 1081.992188 C 1099.648438 1084.84375 1094.960938 1085.9375 1088.105469 1085.546875 C 1094.820312 1078.601562 1099.785156 1074.667969 1109.441406 1073.101562 Z M 1109.441406 1073.101562 "/>
<path style=" stroke:none;fill-rule:nonzero;fill:rgb(16.078431%,16.078431%,16.078431%);fill-opacity:1;" d="M 1034.773438 1080.214844 C 1043.605469 1081.128906 1051.289062 1082.40625 1059.664062 1085.546875 C 1059.664062 1086.132812 1059.664062 1086.71875 1059.664062 1087.324219 C 1056.515625 1087.371094 1053.367188 1087.40625 1050.21875 1087.4375 C 1048.464844 1087.457031 1046.710938 1087.476562 1044.90625 1087.5 C 1040.105469 1087.324219 1040.105469 1087.324219 1034.773438 1085.546875 C 1034.773438 1083.785156 1034.773438 1082.027344 1034.773438 1080.214844 Z M 1034.773438 1080.214844 "/>
<path style=" stroke:none;fill-rule:nonzero;fill:rgb(16.078431%,16.078431%,16.078431%);fill-opacity:1;" d="M 1000.996094 904.214844 C 1002.753906 904.214844 1004.515625 904.214844 1006.328125 904.214844 C 1005.445312 910.851562 1004.773438 914.546875 1000.996094 920.214844 C 1000.410156 919.039062 999.820312 917.867188 999.21875 916.65625 C 998.042969 918.417969 996.871094 920.179688 995.664062 921.992188 C 996.996094 910.214844 996.996094 910.214844 1000.996094 904.214844 Z M 1000.996094 904.214844 "/>
<path style=" stroke:none;fill-rule:nonzero;fill:rgb(16.078431%,16.078431%,16.078431%);fill-opacity:1;" d="M 1095.21875 982.4375 C 1099.324219 983.023438 1103.429688 983.609375 1107.664062 984.214844 C 1100.792969 988.792969 1097.65625 989.875 1089.441406 988.769531 C 1087.828125 988.4375 1086.214844 988.109375 1084.550781 987.769531 C 1084.550781 987.183594 1084.550781 986.59375 1084.550781 985.992188 C 1088.070312 985.992188 1091.589844 985.992188 1095.21875 985.992188 C 1095.21875 984.816406 1095.21875 983.644531 1095.21875 982.4375 Z M 1095.21875 982.4375 "/>
<path style=" stroke:none;fill-rule:nonzero;fill:rgb(16.078431%,16.078431%,16.078431%);fill-opacity:1;" d="M 1128.996094 911.324219 C 1130.167969 911.324219 1131.34375 911.324219 1132.550781 911.324219 C 1133.136719 915.429688 1133.722656 919.539062 1134.328125 923.769531 C 1131.980469 923.769531 1129.636719 923.769531 1127.21875 923.769531 C 1127.140625 920.214844 1127.144531 916.65625 1127.21875 913.101562 C 1127.804688 912.515625 1128.390625 911.929688 1128.996094 911.324219 Z M 1128.996094 911.324219 "/>
<path style=" stroke:none;fill-rule:nonzero;fill:rgb(16.078431%,16.078431%,16.078431%);fill-opacity:1;" d="M 1032.996094 975.324219 C 1035.886719 975.527344 1038.773438 975.753906 1041.664062 975.992188 C 1043.269531 976.113281 1044.878906 976.238281 1046.539062 976.367188 C 1050.773438 977.101562 1050.773438 977.101562 1054.328125 980.65625 C 1039.089844 981.164062 1039.089844 981.164062 1032.996094 977.101562 C 1032.996094 976.515625 1032.996094 975.929688 1032.996094 975.324219 Z M 1032.996094 975.324219 "/>
<path style=" stroke:none;fill-rule:nonzero;fill:rgb(16.078431%,16.078431%,16.078431%);fill-opacity:1;" d="M 1093.441406 877.546875 C 1092.851562 879.308594 1092.265625 881.066406 1091.664062 882.878906 C 1086.382812 882.292969 1081.101562 881.707031 1075.664062 881.101562 C 1075.664062 880.515625 1075.664062 879.929688 1075.664062 879.324219 C 1086.835938 875.007812 1086.835938 875.007812 1093.441406 877.546875 Z M 1093.441406 877.546875 "/>
<path style=" stroke:none;fill-rule:nonzero;fill:rgb(16.078431%,16.078431%,16.078431%);fill-opacity:1;" d="M 1095.21875 1080.214844 C 1093.457031 1081.386719 1091.699219 1082.558594 1089.882812 1083.769531 C 1090.472656 1084.941406 1091.058594 1086.117188 1091.664062 1087.324219 C 1089.316406 1087.324219 1086.96875 1087.324219 1084.550781 1087.324219 C 1084.550781 1086.152344 1084.550781 1084.976562 1084.550781 1083.769531 C 1082.203125 1083.183594 1079.859375 1082.59375 1077.441406 1081.992188 C 1079.730469 1081.347656 1082.03125 1080.71875 1084.328125 1080.101562 C 1085.609375 1079.75 1086.886719 1079.402344 1088.203125 1079.039062 C 1091.664062 1078.4375 1091.664062 1078.4375 1095.21875 1080.214844 Z M 1095.21875 1080.214844 "/>
<path style=" stroke:none;fill-rule:nonzero;fill:rgb(16.078431%,16.078431%,16.078431%);fill-opacity:1;" d="M 1000.976562 941.546875 C 1003.492188 946.238281 1005.195312 950.5625 1006.3125 955.769531 C 1004.550781 955.183594 1002.792969 954.59375 1000.976562 953.992188 C 1000.390625 955.164062 999.804688 956.335938 999.199219 957.546875 C 997.363281 952.589844 997.34375 950.671875 999.089844 945.546875 C 999.710938 944.226562 1000.335938 942.90625 1000.976562 941.546875 Z M 1000.976562 941.546875 "/>
<path style=" stroke:none;fill-rule:nonzero;fill:rgb(16.078431%,16.078431%,16.078431%);fill-opacity:1;" d="M 993.882812 1033.992188 C 995.644531 1033.992188 997.40625 1033.992188 999.21875 1033.992188 C 999.21875 1036.335938 999.21875 1038.683594 999.21875 1041.101562 C 998.042969 1041.101562 996.871094 1041.101562 995.664062 1041.101562 C 995.074219 1043.449219 994.488281 1045.796875 993.882812 1048.214844 C 993.207031 1044.078125 992.617188 1039.929688 992.105469 1035.769531 C 992.691406 1035.183594 993.28125 1034.59375 993.882812 1033.992188 Z M 993.882812 1033.992188 "/>
<path style=" stroke:none;fill-rule:nonzero;fill:rgb(16.078431%,16.078431%,16.078431%);fill-opacity:1;" d="M 1040.105469 875.769531 C 1042.453125 875.769531 1044.800781 875.769531 1047.21875 875.769531 C 1047.21875 876.941406 1047.21875 878.117188 1047.21875 879.324219 C 1050.152344 879.324219 1053.085938 879.324219 1056.105469 879.324219 C 1056.105469 879.910156 1056.105469 880.496094 1056.105469 881.101562 C 1048.1875 881.980469 1048.1875 881.980469 1040.105469 882.878906 C 1040.105469 880.507812 1040.105469 878.140625 1040.105469 875.769531 Z M 1040.105469 875.769531 "/>
</g>
</svg>
