<?xml version="1.0" standalone="no"?>
<!DOCTYPE svg PUBLIC "-//W3C//DTD SVG 20010904//EN"
 "http://www.w3.org/TR/2001/REC-SVG-20010904/DTD/svg10.dtd">
<svg version="1.0" xmlns="http://www.w3.org/2000/svg"
 width="150.000000pt" height="150.000000pt" viewBox="0 0 150.000000 150.000000"
 preserveAspectRatio="xMidYMid meet">

<g transform="translate(0.000000,150.000000) scale(0.100000,-0.100000)"
fill="#000000" stroke="none">
<path d="M671 1303 c-30 -27 -48 -54 -61 -93 l-18 -54 36 -12 c33 -12 38 -11
65 12 15 13 39 27 53 30 14 4 24 13 23 23 -1 30 -34 124 -45 128 -6 2 -30 -13
-53 -34z"/>
<path d="M768 1030 c-12 -90 -25 -138 -48 -187 -16 -36 -28 -68 -25 -71 9 -9
56 41 96 101 43 66 77 160 81 227 l3 45 -45 3 -46 3 -16 -121z"/>
<path d="M392 1117 c-13 -15 -1 -70 25 -122 21 -40 97 -129 133 -155 40 -29
38 -21 -12 38 -53 62 -92 136 -85 157 4 9 19 15 36 15 32 0 47 22 27 39 -17
14 -82 41 -99 41 -8 0 -19 -6 -25 -13z"/>
<path d="M884 949 c-5 -9 3 -13 19 -10 12 2 8 -17 -5 -23 -7 -3 -2 -4 12 -3
34 3 38 33 5 39 -14 3 -28 1 -31 -3z"/>
<path d="M857 874 c7 -3 9 -12 6 -20 -4 -10 0 -12 11 -8 24 9 19 34 -6 33 -13
0 -18 -3 -11 -5z"/>
<path d="M800 810 c0 -5 5 -10 10 -10 6 0 10 5 10 10 0 6 -4 10 -10 10 -5 0
-10 -4 -10 -10z"/>
<path d="M642 718 c6 -18 28 -21 28 -4 0 9 -7 16 -16 16 -9 0 -14 -5 -12 -12z"/>
<path d="M820 702 c-19 -9 -41 -29 -49 -43 -13 -23 -12 -31 12 -83 15 -32 27
-70 27 -84 0 -23 -3 -24 -36 -19 -30 5 -34 4 -24 -8 18 -22 74 -19 95 6 17 18
18 24 6 52 -47 114 -47 114 -27 136 11 12 25 21 33 21 8 0 24 5 35 11 17 9 18
13 7 20 -21 13 -40 11 -79 -9z"/>
<path d="M994 685 c-7 -19 -14 -38 -14 -43 0 -4 -21 -13 -46 -20 -52 -14 -56
-39 -6 -34 32 3 32 3 32 -41 0 -69 22 -82 132 -80 67 1 95 6 108 18 15 14 21
14 39 3 18 -11 23 -10 38 5 15 15 16 17 1 17 -12 0 -16 9 -14 32 1 43 -23 47
-49 8 -30 -44 -40 -37 -14 10 13 23 33 43 46 46 27 7 31 34 4 34 -42 0 -111
-87 -111 -140 0 -23 -24 -26 -79 -10 -41 12 -51 24 -51 69 l0 34 53 -6 c48 -6
50 -5 32 9 -11 8 -32 18 -47 21 -26 5 -27 7 -21 54 7 59 -11 67 -33 14z"/>
<path d="M1405 706 c-61 -27 -74 -77 -36 -140 12 -18 21 -48 21 -66 0 -32 -1
-32 -36 -27 -30 5 -34 4 -24 -8 18 -22 74 -19 95 5 18 20 16 30 -26 137 -11
28 -11 34 6 52 10 12 24 21 32 21 8 0 24 5 35 11 17 9 18 13 7 20 -19 12 -39
11 -74 -5z"/>
<path d="M502 655 c-18 -15 -37 -23 -46 -19 -21 8 -21 -12 0 -84 17 -59 43
-100 45 -72 1 8 1 38 -1 65 -2 55 22 98 62 111 16 5 18 8 7 15 -22 14 -35 11
-67 -16z"/>
<path d="M630 644 c-21 -63 -1 -184 30 -184 4 0 10 37 14 83 10 120 -18 181
-44 101z"/>
<path d="M24 625 c-3 -8 -2 -42 3 -77 6 -49 12 -64 26 -66 10 -2 24 4 32 14
11 16 15 16 30 4 16 -13 20 -11 41 15 17 22 24 25 24 13 0 -18 36 -48 58 -48
10 0 10 5 -2 22 -9 12 -16 36 -16 53 0 64 -52 76 -76 18 -12 -28 -18 -33 -25
-22 -5 8 -9 26 -9 42 0 29 -17 36 -38 15 -9 -9 -12 -7 -12 10 0 25 -27 30 -36
7z"/>
<path d="M316 607 c-38 -40 -61 -104 -44 -124 14 -17 28 -16 48 2 14 13 22 14
44 4 21 -10 29 -10 39 1 9 10 9 13 0 17 -7 3 -13 20 -13 39 0 44 -20 45 -54 2
-31 -39 -34 -27 -6 20 11 18 32 37 46 42 14 6 22 14 19 20 -12 20 -48 9 -79
-23z"/>
<path d="M480 379 c0 -5 5 -7 10 -4 6 3 10 8 10 11 0 2 -4 4 -10 4 -5 0 -10
-5 -10 -11z"/>
</g>
</svg>
