<?xml version="1.0" standalone="no"?>
<!DOCTYPE svg PUBLIC "-//W3C//DTD SVG 20010904//EN"
 "http://www.w3.org/TR/2001/REC-SVG-20010904/DTD/svg10.dtd">
<svg version="1.0" xmlns="http://www.w3.org/2000/svg"
 width="400.000000pt" height="400.000000pt" viewBox="0 0 400.000000 400.000000"
 preserveAspectRatio="xMidYMid meet">

<g transform="translate(0.000000,400.000000) scale(0.100000,-0.100000)"
fill="#000000" stroke="none">
<path d="M1962 3370 c-112 -27 -251 -208 -296 -385 -24 -93 -39 -247 -34 -346
2 -49 2 -89 -1 -89 -3 0 -16 17 -28 38 -44 79 -111 140 -196 182 -107 52 -144
58 -179 30 -57 -44 -55 -120 7 -274 66 -163 179 -331 313 -464 51 -52 96 -91
99 -88 3 3 -19 38 -49 78 -96 129 -171 270 -229 427 l-23 64 29 25 c25 21 35
24 79 18 28 -3 82 -21 121 -40 38 -19 70 -34 71 -33 129 244 254 406 345 447
l44 19 9 -77 c10 -89 -5 -364 -30 -529 -24 -160 -67 -320 -113 -418 -61 -130
-54 -148 22 -66 145 155 272 429 329 713 19 95 23 145 23 313 0 222 -9 272
-64 356 -50 76 -162 120 -249 99z"/>
<path d="M2279 2344 c-6 -7 -8 -22 -4 -34 4 -14 2 -20 -8 -20 -8 0 -17 -8 -19
-18 -6 -22 36 -67 52 -57 6 4 18 1 26 -6 13 -11 18 -10 25 4 6 9 16 17 24 17
18 0 23 9 31 57 5 36 4 41 -17 46 -13 3 -29 1 -36 -5 -10 -8 -13 -7 -13 5 0
19 -47 28 -61 11z m71 -63 c0 -14 -18 -23 -30 -16 -6 4 -8 11 -5 16 8 12 35
12 35 0z"/>
<path d="M2192 2148 c-8 -8 -9 -15 -1 -25 9 -10 8 -13 -5 -13 -22 0 -21 -46 2
-56 9 -4 21 -6 26 -5 4 1 13 -3 20 -8 17 -15 54 21 61 61 5 28 3 37 -10 42 -9
3 -21 4 -25 1 -5 -3 -11 -1 -15 5 -8 14 -38 13 -53 -2z m58 -53 c0 -8 -4 -15
-9 -15 -13 0 -22 16 -14 24 11 11 23 6 23 -9z"/>
<path d="M2095 1981 c-3 -6 -3 -11 2 -11 4 0 2 -4 -6 -9 -17 -11 -8 -27 18
-34 24 -6 37 2 45 31 5 16 3 22 -8 22 -8 0 -21 3 -29 6 -8 3 -18 1 -22 -5z
m35 -31 c0 -5 -2 -10 -4 -10 -3 0 -8 5 -11 10 -3 6 -1 10 4 10 6 0 11 -4 11
-10z"/>
<path d="M1772 1764 c-27 -18 -28 -35 -4 -63 16 -20 18 -21 40 -6 27 20 29 61
4 74 -14 7 -25 6 -40 -5z"/>
<path d="M2519 1699 c-11 -23 -28 -78 -38 -123 -17 -78 -19 -81 -47 -84 -89
-10 -154 -46 -154 -87 0 -30 40 -41 80 -20 16 8 42 15 58 15 l28 0 -8 -82
c-15 -143 4 -198 80 -237 58 -29 118 -33 217 -15 50 9 106 16 126 15 31 -1 42
5 77 43 l41 45 30 -30 c16 -16 40 -29 54 -29 29 0 57 29 57 58 0 19 -4 21 -25
16 l-26 -6 3 93 3 94 -31 3 c-30 3 -34 -1 -72 -70 -43 -80 -81 -130 -82 -110
0 24 69 184 95 218 16 21 35 34 49 34 37 0 60 23 52 53 -5 23 -12 27 -40 27
-69 0 -147 -85 -203 -225 -20 -50 -28 -87 -28 -132 0 -35 -4 -63 -10 -63 -32
0 -184 30 -207 40 -15 7 -35 24 -44 38 -19 29 -30 133 -20 186 6 34 9 36 44
35 20 0 77 -10 126 -23 l89 -23 -34 28 c-44 37 -135 85 -177 94 -24 5 -31 11
-28 23 26 81 33 211 14 230 -19 19 -26 15 -49 -29z"/>
<path d="M3430 1720 c-79 -14 -162 -85 -181 -153 -15 -57 -4 -116 47 -238 51
-125 61 -177 44 -219 -11 -26 -18 -30 -50 -30 -21 0 -56 7 -80 15 -56 20 -49
1 16 -43 43 -30 55 -33 97 -29 57 5 92 34 108 87 15 48 1 112 -50 239 -48 121
-54 154 -37 195 17 41 71 84 117 92 71 14 111 49 78 70 -22 13 -74 20 -109 14z"/>
<path d="M2154 1706 c-44 -20 -99 -71 -118 -110 -29 -61 -21 -126 31 -254 49
-125 66 -219 43 -247 -16 -19 -63 -19 -125 -1 l-48 15 29 -31 c74 -78 189 -76
230 4 26 51 14 134 -40 270 -55 140 -58 174 -15 223 37 42 56 53 117 69 52 13
73 36 53 60 -17 20 -113 21 -157 2z"/>
<path d="M1766 1614 c-31 -31 -41 -96 -41 -269 0 -186 13 -251 59 -294 l23
-21 11 147 c27 328 6 496 -52 437z"/>
<path d="M1500 1603 c-35 -24 -47 -40 -75 -97 -24 -49 -25 -50 -39 -3 -2 7
-17 12 -32 11 -35 -1 -35 9 12 -209 40 -182 51 -210 79 -210 19 0 20 7 20 165
0 150 2 169 22 205 27 51 58 80 108 101 l40 16 -24 19 c-29 24 -79 24 -111 2z"/>
<path d="M466 1514 c-19 -18 -19 -21 -6 -219 9 -150 10 -150 40 -178 24 -21
35 -25 49 -17 19 10 41 59 41 91 0 29 16 22 39 -16 38 -65 102 -39 122 50 7
30 15 55 19 55 4 0 10 -17 13 -39 8 -63 28 -94 77 -119 24 -12 52 -22 62 -22
15 0 13 7 -14 45 -27 39 -32 55 -39 137 -8 103 -17 134 -48 162 -18 16 -24 17
-52 6 -37 -16 -61 -63 -79 -157 -20 -101 -30 -82 -46 84 -3 40 -12 78 -20 84
-21 17 -54 0 -71 -37 -9 -19 -19 -34 -22 -34 -3 0 -6 27 -6 61 1 47 -3 63 -17
70 -22 12 -24 12 -42 -7z"/>
<path d="M1134 1501 c-39 -24 -73 -68 -112 -146 -61 -123 -77 -220 -42 -255
37 -37 84 -19 132 48 l16 23 30 -31 c17 -17 41 -30 55 -30 29 0 57 29 57 58 0
19 -4 21 -25 16 l-25 -6 3 93 2 94 -32 3 c-30 3 -34 -1 -59 -50 -32 -63 -84
-141 -90 -135 -3 2 9 43 27 90 37 104 80 167 112 167 38 0 61 23 53 53 -5 22
-12 27 -39 27 -17 0 -46 -9 -63 -19z"/>
<path d="M903 845 c0 -44 2 -61 4 -37 2 23 2 59 0 80 -2 20 -4 1 -4 -43z"/>
<path d="M997 913 c-4 -3 -7 -11 -7 -17 0 -6 5 -5 12 2 6 6 9 14 7 17 -3 3 -9
2 -12 -2z"/>
<path d="M2200 890 c0 -27 -2 -29 -30 -24 -26 6 -31 3 -40 -22 -18 -45 1 -75
45 -72 l35 3 0 73 c0 39 -2 72 -5 72 -3 0 -5 -13 -5 -30z m-6 -52 c14 -23 -3
-53 -30 -53 -20 0 -31 33 -20 61 7 19 35 14 50 -8z"/>
<path d="M3118 913 c-2 -5 0 -39 3 -78 l5 -70 2 78 c2 70 -1 90 -10 70z"/>
<path d="M680 890 c-24 -24 -27 -82 -4 -104 17 -17 69 -22 78 -7 3 5 -8 8 -26
7 -25 -1 -35 5 -47 26 -22 39 -3 78 39 78 18 0 29 4 25 10 -10 16 -44 11 -65
-10z"/>
<path d="M1397 903 c-4 -3 -6 -36 -5 -72 l1 -66 7 65 c6 70 8 69 41 -22 7 -21
16 -38 20 -38 4 0 17 25 30 55 12 30 26 55 30 55 4 0 5 -25 2 -55 -4 -38 -2
-55 6 -55 7 0 11 23 11 64 0 91 -19 97 -50 16 -21 -56 -28 -56 -54 4 -26 58
-28 61 -39 49z"/>
<path d="M1760 900 c0 -5 5 -10 10 -10 6 0 10 5 10 10 0 6 -4 10 -10 10 -5 0
-10 -4 -10 -10z"/>
<path d="M2425 890 c-22 -24 -25 -81 -6 -104 15 -18 66 -22 76 -6 4 6 -5 7
-24 4 -33 -7 -51 14 -51 60 0 32 36 59 62 45 10 -6 18 -6 18 0 0 10 -24 21
-44 21 -7 0 -21 -9 -31 -20z"/>
<path d="M1911 888 c0 -10 -6 -18 -13 -18 -9 0 -9 -3 0 -12 7 -7 12 -29 12
-50 0 -33 3 -38 23 -37 16 1 18 2 5 6 -13 3 -18 15 -18 43 0 28 5 40 18 43 15
4 15 5 0 6 -9 0 -19 9 -21 19 -4 16 -5 16 -6 0z"/>
<path d="M791 856 c-7 -8 -11 -30 -9 -48 3 -29 7 -33 35 -36 27 -3 35 1 45 22
24 53 -36 105 -71 62z m54 -36 c0 -31 -3 -35 -25 -35 -29 0 -40 36 -19 61 21
26 44 12 44 -26z"/>
<path d="M961 856 c-7 -8 -11 -30 -9 -48 3 -31 5 -33 43 -35 l40 -1 -35 6
c-22 5 -36 14 -38 25 -3 14 4 17 32 17 37 0 47 15 24 38 -16 16 -43 15 -57 -2z
m57 -13 c2 -9 -7 -13 -27 -13 -30 0 -39 9 -24 24 11 10 46 3 51 -11z"/>
<path d="M1066 862 c-10 -16 -9 -113 1 -123 15 -15 54 -7 67 14 13 21 -5 37
-41 37 -13 0 -23 5 -23 10 0 6 5 10 11 10 8 0 8 4 -1 15 -13 16 -6 35 15 35
21 0 28 -19 13 -37 -11 -14 -11 -16 1 -11 8 2 18 16 22 31 7 25 5 27 -26 27
-19 0 -36 -3 -39 -8z m53 -91 c7 -5 10 -14 7 -20 -10 -16 -56 -14 -56 2 0 26
23 35 49 18z"/>
<path d="M1173 820 c0 -30 2 -43 4 -27 2 15 2 39 0 55 -2 15 -4 2 -4 -28z"/>
<path d="M1234 862 c-18 -12 -26 -50 -14 -72 16 -30 68 -27 80 5 20 51 -24 95
-66 67z m51 -42 c0 -31 -3 -35 -25 -35 -19 0 -26 6 -28 23 -5 36 5 54 30 50
19 -2 23 -9 23 -38z"/>
<path d="M1580 861 c0 -5 9 -7 21 -4 12 4 25 0 29 -8 7 -10 0 -16 -23 -24 -41
-13 -45 -49 -7 -52 14 -1 18 0 8 3 -22 7 -23 30 -2 38 21 8 34 -1 28 -18 -3
-8 -1 -17 5 -21 12 -7 15 52 5 79 -6 17 -64 23 -64 7z"/>
<path d="M1692 815 c1 -43 2 -45 5 -13 3 24 12 43 26 53 22 15 22 15 -6 13
-26 -2 -27 -5 -25 -53z"/>
<path d="M1760 820 c0 -27 5 -50 10 -50 6 0 10 23 10 50 0 28 -4 50 -10 50 -5
0 -10 -22 -10 -50z"/>
<path d="M1813 854 c-4 -10 4 -24 23 -39 25 -20 27 -24 12 -30 -9 -4 -22 -4
-28 0 -5 3 -10 1 -10 -4 0 -18 50 -13 57 6 4 11 -3 24 -22 39 -22 17 -25 24
-15 28 8 2 22 7 30 9 8 3 2 6 -13 6 -17 1 -30 -5 -34 -15z"/>
<path d="M1977 863 c-3 -5 6 -9 20 -8 37 0 40 -22 4 -30 -24 -5 -31 -12 -31
-31 0 -22 4 -24 35 -22 l36 2 -3 46 c-3 40 -6 45 -30 48 -14 2 -28 -1 -31 -5z
m51 -60 c-4 -23 -48 -31 -48 -10 0 9 6 18 13 20 25 11 38 7 35 -10z"/>
<path d="M2250 851 c-24 -46 -5 -82 45 -80 l30 1 -30 7 c-17 3 -31 14 -33 24
-3 14 4 17 32 17 20 0 36 3 36 6 0 20 -24 44 -45 44 -14 0 -29 -8 -35 -19z
m58 -8 c2 -8 -6 -13 -22 -13 -25 0 -33 10 -19 24 10 10 36 3 41 -11z"/>
<path d="M2536 861 c-4 -5 3 -7 15 -4 12 4 25 0 29 -8 7 -10 0 -16 -23 -24
-41 -13 -45 -49 -7 -52 14 -1 18 0 8 3 -22 7 -23 30 -2 38 21 8 34 -1 28 -18
-3 -8 -1 -17 5 -21 12 -7 15 52 5 79 -7 17 -49 22 -58 7z"/>
<path d="M2642 815 c1 -43 2 -45 5 -13 3 24 12 43 26 53 22 15 22 15 -6 13
-26 -2 -27 -5 -25 -53z"/>
<path d="M2709 843 c-14 -38 3 -73 35 -73 14 0 27 4 31 9 3 6 -7 9 -22 8 -26
-2 -28 1 -28 33 0 32 2 35 28 33 15 -1 25 2 22 8 -4 5 -17 9 -31 9 -17 0 -27
-8 -35 -27z"/>
<path d="M2807 863 c-3 -5 6 -9 20 -8 37 0 40 -21 3 -28 -24 -5 -30 -12 -30
-32 0 -23 3 -25 35 -23 l36 2 -3 46 c-3 40 -6 45 -30 48 -14 2 -28 -1 -31 -5z
m51 -60 c-4 -23 -48 -31 -48 -10 0 9 6 18 13 20 25 11 38 7 35 -10z"/>
<path d="M2909 823 c10 -26 23 -49 29 -51 5 -1 17 18 26 44 17 51 14 76 -4 28
-6 -16 -13 -36 -16 -44 -4 -10 -11 0 -21 28 -8 23 -19 42 -24 42 -5 0 0 -21
10 -47z"/>
<path d="M3012 858 c-15 -15 -16 -60 0 -76 7 -7 26 -11 43 -11 27 2 27 2 5 6
-56 11 -67 43 -14 43 31 0 35 3 32 23 -3 25 -45 36 -66 15z m56 -15 c2 -9 -7
-13 -28 -13 -28 0 -31 2 -20 15 15 18 41 16 48 -2z"/>
<path d="M3170 851 c-22 -42 -5 -81 35 -81 28 0 45 19 45 50 0 14 -5 31 -12
38 -18 18 -56 14 -68 -7z m65 -11 c9 -29 -4 -60 -25 -60 -11 0 -24 9 -30 20
-14 26 3 60 30 60 10 0 22 -9 25 -20z"/>
<path d="M3283 854 c-4 -10 4 -24 23 -39 25 -20 27 -24 12 -30 -9 -4 -22 -4
-28 0 -5 3 -10 1 -10 -4 0 -18 50 -13 57 6 4 11 -3 24 -22 39 l-29 23 24 10
c25 10 25 10 2 10 -12 1 -25 -6 -29 -15z"/>
</g>
</svg>
